<?xml version="1.0" encoding="UTF-8" standalone="no"?>
<!-- Created with Inkscape (http://www.inkscape.org/) -->

<svg
   xmlns:dc="http://purl.org/dc/elements/1.1/"
   xmlns:cc="http://creativecommons.org/ns#"
   xmlns:rdf="http://www.w3.org/1999/02/22-rdf-syntax-ns#"
   xmlns:svg="http://www.w3.org/2000/svg"
   xmlns="http://www.w3.org/2000/svg"
   xmlns:sodipodi="http://sodipodi.sourceforge.net/DTD/sodipodi-0.dtd"
   xmlns:inkscape="http://www.inkscape.org/namespaces/inkscape"
   id="svg2876"
   version="1.1"
   inkscape:version="0.48.0 r9654"
   width="744.1"
   height="1052.3625"
   xml:space="preserve"
   sodipodi:docname="team_diamond_logo-extras.svg"><metadata
     id="metadata2882"><rdf:RDF><cc:Work
         rdf:about=""><dc:format>image/svg+xml</dc:format><dc:type
           rdf:resource="http://purl.org/dc/dcmitype/StillImage" /><dc:title></dc:title></cc:Work></rdf:RDF></metadata><defs
     id="defs2880"><inkscape:perspective
       sodipodi:type="inkscape:persp3d"
       inkscape:vp_x="0 : 0.5 : 1"
       inkscape:vp_y="0 : 1000 : 0"
       inkscape:vp_z="1 : 0.5 : 1"
       inkscape:persp3d-origin="0.5 : 0.33333333 : 1"
       id="perspective2884" /><clipPath
       clipPathUnits="userSpaceOnUse"
       id="clipPath2892"><path
         d="m 0,841.89 595.28,0 L 595.28,0 0,0 0,841.89 z"
         id="path2894" /></clipPath></defs><sodipodi:namedview
     pagecolor="#ffffff"
     bordercolor="#666666"
     borderopacity="1"
     objecttolerance="10"
     gridtolerance="10"
     guidetolerance="10"
     inkscape:pageopacity="0"
     inkscape:pageshadow="2"
     inkscape:window-width="1680"
     inkscape:window-height="990"
     id="namedview2878"
     showgrid="false"
     inkscape:zoom="0.75734356"
     inkscape:cx="261.95327"
     inkscape:cy="481.4318"
     inkscape:window-x="1437"
     inkscape:window-y="-3"
     inkscape:window-maximized="1"
     inkscape:current-layer="g2888" /><g
     id="g2886"
     inkscape:groupmode="layer"
     inkscape:label="Diamond Logo for export"
     transform="matrix(1.25,0,0,-1.25,0,1052.3625)"><g
       id="g2888"><path
         id="path5164"
         d="m 426.81627,361.45263 c -0.805,0.55 -1.567,1.922 -0.621,3.307 c 0.749,1.094 2.084,1.458 3.211,0.687 c 1.127,-0.771 1.532,-2.182 0.695,-3.406 c -0.925,-1.352 -2.384,-1.205 -3.285,-0.588 z"
         style="fill:#d4aa00;stroke:#373535;stroke-width:0.25;stroke-linecap:butt;stroke-linejoin:miter;stroke-miterlimit:4;stroke-opacity:1;stroke-dasharray:none"
         inkscape:connector-curvature="0" /><path
         id="path5162"
         d="m 411.15603,359.44374 c -3.581,3.422 -7.20276,4.09759 -9.51876,3.99059 c -4.96,-0.223 -8.371,-3.114 -10.472,-5.314 c -0.539,-0.564 -1.452,-1.688 -1.554,-2.021 c -0.13,-0.362 -0.07,-0.581 0.24,-0.878 c 0.932,-0.944 3.385,-3.289 5.612,-5.417 l 3.554,-3.396 c 2.988,-2.856 5.187,-4.903 5.75,-5.386 c 0.732,-0.646 1.913,-1.667 2.44,-1.738 c 0.885,-0.146 2.529,0.388 4.657,2.616 c 2.749,2.876 4.017,5.333 4.168,8.425 c 0.174,3.287 -1.854,6.304 -4.758,9.079 l 2.793,4.56 c 3.553,-3.395 4.832,-7.477 4.931,-10.592 c 0.085,-2.563 -0.715,-7.409 -5.701,-12.626 c -0.969,-1.015 -2.159,-2.091 -3.268,-3.081 c -1.109,-0.991 -2.136,-1.897 -2.81,-2.602 c -0.297,-0.31 -0.889,-0.93 -1.508,-1.634 c -0.62,-0.649 -1.263,-1.436 -1.802,-2 c -0.351,-0.366 -0.624,-0.483 -0.822,-0.294 c -0.14,0.135 -0.117,0.328 0.207,0.666 c 0.404,0.424 0.67,0.816 0.857,1.124 c 0.426,0.671 -0.06,1.405 -0.77,2.299 c -1.049,1.273 -3.277,3.402 -5.872,5.881 l -4.963,4.743 c -4.286,4.096 -5.075,4.85 -6.031,5.656 c -1.012,0.86 -1.679,1.066 -2.766,0.323 c -0.272,-0.171 -0.758,-0.624 -1.136,-1.018 c -0.296,-0.31 -0.514,-0.426 -0.712,-0.237 c -0.197,0.188 -0.065,0.44 0.34,0.862 c 1.428,1.494 3.21,3.19 3.965,3.979 c 0.835,0.874 2.448,2.731 4.065,4.425 c 3.368,3.524 7.868,8.233 14.02,8.235 c 2.814,0.009 6.26234,-0.78376 9.61834,-3.99076 l -2.75358,-4.63883 z"
         style="fill:#d4aa00;stroke:#373535;stroke-width:0.25;stroke-linecap:butt;stroke-linejoin:miter;stroke-miterlimit:4;stroke-opacity:1;stroke-dasharray:none"
         sodipodi:nodetypes="ccsscccccsccccssscsssscccccsssscccc"
         inkscape:connector-curvature="0" /><path
         id="path5160"
         d="m 391.08087,325.18603 c -0.586,0.78 -0.868,2.324 0.472,3.332 c 1.06,0.796 2.44,0.712 3.26,-0.379 c 0.821,-1.091 0.752,-2.557 -0.432,-3.448 c -1.309,-0.984 -2.644,-0.378 -3.3,0.495 z"
         style="fill:#d4aa00;stroke:#373535;stroke-width:0.25;stroke-linecap:butt;stroke-linejoin:miter;stroke-miterlimit:4;stroke-opacity:1;stroke-dasharray:none"
         inkscape:connector-curvature="0" /><path
         id="path5158"
         d="m 362.10483,339.53223 c 0.306,0.172 0.52434,-0.019 1.30434,-0.608 c 1.869,-1.408 15.123,-12.2 20.21,-16.136 c 3.016,-2.329 4.269,-2.249 5.078,-2.016 c 0.567,0.186 1.096,0.439 1.503,0.669 c 0.272,0.153 0.461,0.216 0.596,-0.022 c 0.153,-0.272 -0.115,-0.512 -1.371,-1.221 c -1.223,-0.69 -3.703,-2.09 -6.458,-3.555 c -0.631,-0.311 -1.039,-0.541 -1.172,-0.303 c -0.116,0.204 -0.018,0.348 0.302,0.574 c 0.2,0.202 0.265,0.642 -0.134,0.953 l -6.781,5.668 c -0.164,0.132 -0.304,0.142 -0.474,0.046 l -7.574,-4.274 c -0.17,-0.095 -0.2,-0.202 -0.153,-0.444 l 0.906,-5.892 c 0.14,-1.041 0.43,-1.952 0.661,-2.359 c 0.344,-0.612 0.899,-0.881 1.952,-0.287 l 0.51,0.288 c 0.407,0.23 0.547,0.219 0.663,0.016 c 0.153,-0.272 -0.013,-0.455 -0.386,-0.666 c -1.087,-0.613 -2.606,-1.335 -3.658,-1.93 c -0.374,-0.21 -2.185,-1.366 -3.951,-2.363 c -0.441,-0.249 -0.683,-0.296 -0.836,-0.024 c -0.116,0.203 -0.018,0.348 0.253,0.501 c 0.306,0.173 0.762,0.475 1.015,0.662 c 1.447,1.086 1.441,2.605 1.162,4.686 l -3.51,26.141 c -0.148,1.216 -0.155,1.704 0.185,1.896 l 3.079,-7.445 c -0.101,-0.057 -0.074,-0.265 -0.031,-0.418 l 1.59,-10.119 c 0.043,-0.155 0.133,-0.238 0.27,-0.161 l 6.249,3.526 c 0.17,0.096 0.147,0.217 0.055,0.3 l -7.79,6.662 c -0.111,0.117 -0.004,0.0305 -0.10652,-0.0265 l -3.15782,7.68148 z"
         style="fill:#d4aa00;stroke:#373535;stroke-width:0.25;stroke-linecap:butt;stroke-linejoin:miter;stroke-miterlimit:4;stroke-opacity:1;stroke-dasharray:none"
         sodipodi:nodetypes="csccssscscccccccsccssssssscccccccccccc"
         inkscape:connector-curvature="0" /><path
         id="path5156"
         d="m 338.50013,298.98293 c 2.948,0.751 4.53804,3.587 3.65204,7.065 c -0.963,3.779 -4.438,4.786 -8.304,5.894 c -1.742,-1.691 -3.574,-4.613 -2.592,-8.468 c 0.857,-3.365 3.959,-5.271 7.021,-4.491 l 0.141,-1.815 c -5.594,-1.426 -10.191,0.342 -11.374,4.991 c -1.07,4.195 1.506,7.83 4.797,10.238 c -3.551,0.826 -6.424,2.308 -7.243,5.52 c -0.751,2.948 0.79,7.486 7.215,9.123 l -0.001,-1.731 c -3.289,-0.838 -4.014,-3.518 -3.475,-5.635 c 0.597,-2.343 2.617,-3.479 6.547,-4.53 c 0.971,0.771 3.204,2.909 2.231,6.727 c -0.722,2.834 -2.81204,4.09961 -5.08004,3.52161 l -0.0269,1.731 c 4.611,1.175 8.09291,-0.22561 9.02691,-3.89261 c 1.011,-3.968 -1.899,-7.084 -3.775,-8.407 c 3.049,-0.753 7.842,-2.028 9.036,-6.715 c 1.136,-4.459 -1.30604,-9.29613 -7.65504,-10.91313 l -0.141,1.78713 z"
         style="fill:#d4aa00;stroke:#373535;stroke-width:0.25;stroke-linecap:butt;stroke-linejoin:miter;stroke-miterlimit:4;stroke-opacity:1;stroke-dasharray:none"
         sodipodi:nodetypes="cscsccccsccscsccscscc"
         inkscape:connector-curvature="0" /><path
         id="path5154"
         d="m 310.66033,323.36863 c 7.695,0.641 10.21104,-7.35 10.72504,-13.529 c 0.803,-9.638 -2.349,-16.436 -9.034,-16.992 c -7.656,-0.638 -10.492,8.049 -10.952,13.567 c -0.753,9.056 1.848,16.355 9.038,16.954 l -0.671,-1.817 c -2.915,-0.243 -4.681,-4.42 -3.942,-13.281 c 0.559,-6.724 2.844,-13.969 7.12,-13.613 c 3.148,0.262 4.648,5.748 4.02,13.288 c -0.559,6.723 -2.73904,13.959 -6.97504,13.606 l 0.671,1.817 z"
         style="fill:#d4aa00;stroke:#373535;stroke-width:0.25;stroke-linecap:butt;stroke-linejoin:miter;stroke-miterlimit:4;stroke-opacity:1;stroke-dasharray:none"
         sodipodi:nodetypes="cccccccsccc"
         inkscape:connector-curvature="0" /><path
         id="path5152"
         d="m 288.04981,321.65537 c -2.916,0.232 -5.11104,-3.66074 -5.81804,-12.52574 c -0.536,-6.726 0.547,-14.246 4.824,-14.587 c 3.15,-0.251 5.517,4.921 6.119,12.463 c 0.536,6.727 -0.664,14.256 -4.902,14.594 l 0.956,1.684 c 7.698,-0.613 9.108,-8.942 8.616,-15.123 c -0.769,-9.643 -4.98,-15.841 -11.667,-15.309 c -7.659,0.611 -9.052,9.643 -8.613,15.164 c 0.722,9.058 4.1923,15.841 11.3853,15.268 l -0.90026,-1.62826 z"
         style="fill:#d4aa00;stroke:#373535;stroke-width:0.25;stroke-linecap:butt;stroke-linejoin:miter;stroke-miterlimit:4;stroke-opacity:1;stroke-dasharray:none"
         sodipodi:nodetypes="csscccccccc"
         inkscape:connector-curvature="0" /><path
         id="path5150"
         d="m 251.28647,300.07913 c -0.265,0.066 -0.473,0.36 -0.397,0.663 c 0.076,0.302 0.54,0.547 1.003,0.793 c 6.464,3.324 15.472,7.336 17.474,15.317 c 1.5,5.977 -1.487,8.013 -3.379,8.488 c -1.626,0.408 -2.951,0.419 -4.351,-0.356 c -1.126,-0.642 -2.253,-2.249 -2.5,-3.232 c -0.095,-0.378 -0.294,-0.69 -0.672,-0.595 c -0.189,0.047 -0.236,0.34 -0.16,0.803 c 0.047,0.35 0.646,3.537 0.921,4.634 c 0.086,0.34 0.162,0.483 0.644,0.643 c 1.665,0.386 3.879,0.554 7.208,-0.281 c 6.657,-1.67 8.583,-6.013 7.472,-10.439 c -1.841,-7.338 -11.577,-11.69 -17.435,-14.362 c -0.227,-0.104 -0.18,-0.237 0.009,-0.284 l 2.573,-0.646 c 0.643,-0.161 5.116,-1.243 6.563,-1.405 c 2.686,-0.352 4.256,0.621 5.157,2.285 c 0.227,0.425 0.378,0.548 0.605,0.491 c 0.265,-0.066 0.218,-0.416 0.123,-0.794 c -0.152,-0.606 -1.754,-3.943 -2.454,-5.135 c -0.559,-0.945 -1.193,-0.906 -3.576,-0.309 l -14.828,3.721 z"
         style="fill:#d4aa00;stroke:#373535;stroke-width:0.25;stroke-linecap:butt;stroke-linejoin:miter;stroke-miterlimit:4;stroke-opacity:1;stroke-dasharray:none"
         inkscape:connector-curvature="0" /><path
         id="path5148"
         d="m 229.70107,311.68453 c 0.422,0.879 1.663,1.841 3.174,1.115 c 1.196,-0.573 1.757,-1.838 1.166,-3.069 c -0.591,-1.23 -1.924,-1.844 -3.26,-1.203 c -1.476,0.709 -1.552,2.173 -1.08,3.157 z"
         style="fill:#d4aa00;stroke:#373535;stroke-width:0.25;stroke-linecap:butt;stroke-linejoin:miter;stroke-miterlimit:4;stroke-opacity:1;stroke-dasharray:none"
         inkscape:connector-curvature="0" /><path
         id="path5146"
         d="m 227.81387,341.30713 l -5.007,2.956 c -1.959,1.135 -2.856,1.467 -3.807,1.051 c -0.642,-0.289 -1.056,-0.582 -1.287,-0.804 c -0.232,-0.224 -0.414,-0.294 -0.612,-0.169 c -0.232,0.145 -0.194,0.352 0.034,0.715 c 0.331,0.529 2.845,3.143 3.076,3.366 c 0.369,0.367 0.593,0.503 0.791,0.379 c 0.264,-0.166 0.388,-0.703 1.172,-1.287 c 0.897,-0.701 2.111,-1.554 3.202,-2.238 l 13.088,-8.206 c 1.058,-0.663 1.847,-1.019 2.384,-1.264 c 0.558,-0.212 0.864,-0.312 0.996,-0.395 c 0.231,-0.145 0.14,-0.364 -0.171,-0.859 c -0.435,-0.694 -1.964,-2.912 -2.503,-3.772 c -0.24,-0.31 -0.43,-0.467 -0.628,-0.342 c -0.265,0.165 -0.228,0.372 0.05,0.889 l 0.195,0.384 c 0.473,0.901 0.161,2.386 -2.74,4.296 l -4.102,2.71 l -8.495,-13.551 c -1.907,-3.041 -3.544,-5.651 -4.269,-7.176 c -0.482,-0.988 -0.739,-1.839 0.17,-2.593 c 0.421,-0.356 1.107,-0.878 1.602,-1.189 c 0.364,-0.228 0.467,-0.431 0.363,-0.596 c -0.145,-0.231 -0.471,-0.165 -0.835,0.063 c -2.181,1.368 -4.201,2.773 -5.127,3.353 c -0.76,0.476 -2.904,1.682 -4.226,2.511 c -0.43,0.27 -0.599,0.514 -0.454,0.746 c 0.103,0.165 0.298,0.181 0.695,-0.068 c 0.495,-0.311 0.933,-0.493 1.272,-0.614 c 0.744,-0.282 1.398,0.321 2.098,1.217 c 1.036,1.285 2.673,3.896 4.579,6.936 l 8.496,13.551 z"
         style="fill:#d4aa00;stroke:#373535;stroke-width:0.25;stroke-linecap:butt;stroke-linejoin:miter;stroke-miterlimit:4;stroke-opacity:1;stroke-dasharray:none"
         inkscape:connector-curvature="0" /><path
         id="path5144"
         d="m 187.76207,339.18213 c -0.278,0.622 -0.233,0.845 0.343,1.479 c 1.443,1.587 3.132,3.214 3.581,3.649 c 0.422,0.407 0.797,0.646 1.028,0.436 c 0.26,-0.236 0.052,-0.522 -0.158,-0.753 c -0.34,-0.375 -0.776,-1.086 -1.077,-1.707 c -1.306,-2.713 -0.312,-5.04 1.477,-6.666 c 2.597,-2.36 5.466,-1.754 6.856,-0.225 c 1.285,1.414 2.059,3.135 1.369,7.187 l -0.383,2.246 c -0.918,5.366 -0.178,8.383 1.946,10.72 c 2.886,3.174 7.612,3.04 11.623,-0.606 c 1.875,-1.705 2.825,-3.095 3.392,-3.979 c 0.207,-0.294 0.273,-0.511 0.089,-0.713 c -0.341,-0.376 -1.217,-1.107 -3.263,-3.358 c -0.577,-0.635 -0.873,-0.787 -1.104,-0.577 c -0.202,0.183 -0.132,0.435 0.183,0.782 c 0.237,0.259 0.905,1.285 0.981,2.586 c 0.066,0.942 0.016,2.568 -1.86,4.273 c -2.135,1.941 -4.561,1.881 -6.135,0.149 c -1.206,-1.327 -1.461,-2.94 -0.719,-6.935 l 0.258,-1.341 c 1.104,-5.799 0.535,-8.918 -1.957,-11.659 c -1.521,-1.674 -3.966,-3.088 -7.276,-2.555 c -2.282,0.388 -4.134,1.597 -5.663,2.987 c -1.674,1.522 -2.789,2.904 -3.531,4.58 z"
         style="fill:#d4aa00;stroke:#373535;stroke-width:0.25;stroke-linecap:butt;stroke-linejoin:miter;stroke-miterlimit:4;stroke-opacity:1;stroke-dasharray:none"
         inkscape:connector-curvature="0" /><path
         id="path5142"
         d="m 185.23957,369.38133 c 4.66,3.665 5.518,4.34 6.451,5.173 c 0.994,0.881 1.291,1.512 0.711,2.692 c -0.132,0.294 -0.512,0.839 -0.849,1.268 c -0.265,0.337 -0.349,0.569 -0.134,0.738 c 0.215,0.169 0.445,0.003 0.806,-0.457 c 0.651,-0.828 1.32,-1.741 1.923,-2.508 c 0.596,-0.821 1.12,-1.55 1.457,-1.979 c 0.772,-0.981 5.569,-7.081 6.058,-7.64 c 0.519,-0.534 0.967,-0.976 1.221,-1.173 c 0.151,-0.129 0.387,-0.241 0.508,-0.394 c 0.12,-0.154 0.022,-0.281 -0.131,-0.401 c -0.215,-0.169 -0.703,-0.305 -2.186,-1.322 c -0.33,-0.21 -1.728,-1.21 -2.144,-1.438 c -0.177,-0.09 -0.409,-0.173 -0.578,0.042 c -0.169,0.214 -0.064,0.396 0.213,0.613 c 0.214,0.169 0.711,0.609 0.958,1.052 c 0.383,0.648 0.51,1.244 -0.512,2.921 c -0.348,0.57 -2.818,3.837 -3.3,4.45 c -0.121,0.153 -0.261,0.142 -0.475,-0.027 l -7.756,-6.099 c -0.215,-0.169 -0.313,-0.296 -0.169,-0.48 c 0.531,-0.674 3.303,-4.199 3.919,-4.857 c 0.64,-0.687 1.093,-1.074 1.617,-1.109 c 0.414,-0.022 0.664,-0.024 0.785,-0.177 c 0.096,-0.123 0.107,-0.263 -0.077,-0.408 c -0.184,-0.145 -0.771,-0.408 -2.431,-1.515 c -0.637,-0.451 -1.935,-1.323 -2.15,-1.492 c -0.245,-0.193 -0.583,-0.458 -0.799,-0.182 c -0.169,0.214 -0.095,0.372 0.059,0.493 c 0.282,0.271 0.68,0.585 1.006,0.99 c 0.493,0.636 0.615,1.426 -0.154,2.657 c -0.397,0.631 -2.753,3.69 -3.331,4.425 c -0.121,0.154 -0.268,0.088 -0.452,-0.057 l -2.421,-1.904 c -1.043,-0.82 -3.887,-3.007 -4.752,-3.737 c -2.067,-1.725 -2.141,-2.577 0.318,-5.704 c 0.627,-0.797 1.64,-2.084 2.634,-2.592 c 0.995,-0.508 1.928,-0.37 3.354,0.404 c 0.385,0.204 0.556,0.239 0.724,0.025 c 0.193,-0.246 -0.052,-0.438 -0.359,-0.68 c -0.705,-0.554 -2.982,-1.948 -3.715,-2.277 c -0.966,-0.412 -1.183,-0.136 -2.099,1.028 c -1.809,2.3 -3.073,4.034 -4.079,5.376 c -0.976,1.366 -1.692,2.341 -2.416,3.261 c -0.265,0.337 -0.795,1.011 -1.404,1.723 c -0.555,0.705 -1.243,1.454 -1.725,2.067 c -0.313,0.398 -0.391,0.685 -0.176,0.854 c 0.154,0.121 0.342,0.07 0.631,-0.298 c 0.362,-0.46 0.713,-0.779 0.991,-1.007 c 0.604,-0.517 1.399,-0.139 2.385,0.437 c 1.408,0.859 3.83,2.764 6.65,4.982 l 5.395,4.243 z"
         style="fill:#d4aa00;stroke:#373535;stroke-width:0.25;stroke-linecap:butt;stroke-linejoin:miter;stroke-miterlimit:4;stroke-opacity:1;stroke-dasharray:none"
         inkscape:connector-curvature="0" /><path
         id="path5140"
         d="m 150.03697,485.80373 c -0.59,0.19 -3.74,1.99 -4.01,2.16 c -0.45,0.27 -0.64,0.45 -0.56,0.68 c 0.09,0.29 0.58,0.54 0.96,1.45 c 0.46,1.04 0.99,2.42 1.39,3.65 l 4.76,14.68 c 0.38,1.19 0.54,2.04 0.64,2.62 c 0.07,0.6 0.09,0.92 0.14,1.07 c 0.09,0.26 0.32,0.22 0.88,0.04 c 0.78,-0.25 3.3,-1.19 4.26,-1.51 c 0.36,-0.15 0.56,-0.3 0.49,-0.52 c -0.1,-0.3 -0.31,-0.31 -0.88,-0.17 l -0.42,0.1 c -0.98,0.23 -2.35,-0.43 -3.49,-3.71 l -1.63,-4.64 l 15.21,-4.93 c 3.41,-1.1 6.34,-2.05 8,-2.38 c 1.07,-0.23 1.96,-0.27 2.47,0.79 c 0.24,0.5 0.58,1.29 0.76,1.85 c 0.13,0.41 0.31,0.56 0.49,0.5 c 0.26,-0.09 0.28,-0.42 0.14,-0.83 c -0.79,-2.45 -1.66,-4.75 -2,-5.78 c -0.27,-0.86 -0.92,-3.23 -1.4,-4.72 c -0.16,-0.48 -0.35,-0.7 -0.61,-0.62 c -0.19,0.06 -0.25,0.25 -0.1,0.69 c 0.18,0.56 0.25,1.03 0.28,1.38 c 0.09,0.79 -0.65,1.28 -1.69,1.74 c -1.5,0.69 -4.43,1.64 -7.84,2.75 l -15.21,4.93 l -1.64,-5.58 c -0.63,-2.17 -0.73,-3.12 -0.09,-3.94 c 0.43,-0.56 0.82,-0.89 1.09,-1.06 c 0.27,-0.17 0.38,-0.33 0.31,-0.55 c -0.08,-0.26 -0.29,-0.27 -0.7,-0.14 z"
         style="fill:#d4aa00;stroke:#373535;stroke-width:0.25;stroke-linecap:butt;stroke-linejoin:miter;stroke-miterlimit:4;stroke-opacity:1;stroke-dasharray:none"
         inkscape:connector-curvature="0" /><path
         id="path5138"
         d="m 175.63707,526.50393 c 0.38,0.85 0.57,1.42 0.4,1.92 c -0.14,0.39 -0.24,0.62 -0.14,0.79 c 0.08,0.14 0.2,0.2 0.4,0.09 c 0.21,-0.12 0.68,-0.56 2.34,-1.66 c 0.66,-0.42 1.97,-1.28 2.2,-1.41 c 0.28,-0.15 0.65,-0.36 0.48,-0.67 c -0.13,-0.24 -0.31,-0.23 -0.48,-0.14 c -0.36,0.16 -0.8,0.41 -1.3,0.55 c -0.77,0.21 -1.55,0.02 -2.39,-1.16 c -0.43,-0.61 -2.34,-3.97 -2.8,-4.78 c -0.1,-0.17 0.02,-0.28 0.23,-0.4 l 2.69,-1.5 c 1.15,-0.64 4.27,-2.43 5.28,-2.94 c 2.38,-1.25 3.2,-0.99 5.14,2.49 c 0.49,0.88 1.29,2.31 1.37,3.43 c 0.09,1.11 -0.4,1.92 -1.66,2.94 c -0.34,0.27 -0.44,0.42 -0.3,0.66 c 0.15,0.27 0.42,0.12 0.76,-0.07 c 0.68,-0.38 2.4,-1.62 3.22,-2.3 c -0.03,-0.05 -0.07,-0.09 -0.1,-0.13 c -0.21,-0.24 -0.25,-0.41 -0.07,-0.56 c 0.22,-0.18 0.41,-0.09 0.69,0.21 c 0.51,-0.59 0.3,-0.95 -0.35,-2.11 c -1.42,-2.55 -2.53,-4.39 -3.39,-5.83 c -0.88,-1.43 -1.5,-2.47 -2.07,-3.49 c -0.21,-0.37 -0.63,-1.12 -1.05,-1.96 c -0.44,-0.78 -0.86,-1.71 -1.24,-2.39 c -0.25,-0.44 -0.49,-0.62 -0.73,-0.49 c -0.17,0.1 -0.19,0.29 0.04,0.7 c 0.28,0.51 0.44,0.96 0.54,1.3 c 0.25,0.76 -0.41,1.35 -1.32,2.03 c -1.33,0.97 -4.02,2.47 -7.16,4.22 l -5.99,3.34 c -5.18,2.89 -6.13,3.42 -7.26,3.96 c -1.2,0.58 -1.89,0.61 -2.76,-0.38 c -0.22,-0.23 -0.57,-0.79 -0.84,-1.27 c -0.21,-0.37 -0.39,-0.54 -0.63,-0.41 c -0.24,0.14 -0.17,0.41 0.11,0.92 c 0.51,0.92 1.1,1.89 1.57,2.74 c 0.53,0.87 1,1.63 1.27,2.11 c 0.61,1.09 4.39,7.87 4.71,8.53 c 0.3,0.69 0.53,1.27 0.62,1.58 c 0.06,0.19 0.07,0.45 0.16,0.62 c 0.1,0.17 0.25,0.13 0.42,0.04 c 0.24,-0.14 0.56,-0.54 2.07,-1.51 c 0.32,-0.23 1.78,-1.13 2.15,-1.43 c 0.15,-0.12 0.32,-0.31 0.18,-0.54 c -0.13,-0.24 -0.34,-0.22 -0.64,-0.05 c -0.24,0.14 -0.84,0.43 -1.34,0.48 c -0.75,0.11 -1.35,-0.01 -2.5,-1.59 c -0.39,-0.54 -2.46,-4.08 -2.84,-4.76 c -0.09,-0.17 -0.03,-0.3 0.21,-0.43 l 8.62,-4.81 c 0.24,-0.13 0.39,-0.17 0.51,0.03 c 0.41,0.75 2.6,4.67 2.97,5.49 z"
         style="fill:#d4aa00;stroke:#373535;stroke-width:0.25;stroke-linecap:butt;stroke-linejoin:miter;stroke-miterlimit:4;stroke-opacity:1;stroke-dasharray:none"
         inkscape:connector-curvature="0" /><path
         style="fill:#d4aa00;stroke:#373535;stroke-width:0.25;stroke-linecap:butt;stroke-linejoin:miter;stroke-miterlimit:4;stroke-opacity:1;stroke-dasharray:none"
         d="m 178.32271,553.18764 c 0.22,0.27 0.58426,0.13639 1.52426,-0.14361 c 2.24,-0.67 18.43,-6.16 24.57,-8.08 c 3.48,-1.08 4.68,-0.66 5.37,-0.18 l 0.01,0 c 0.16,0 0.33,0.09 0.52,0.22 c 0.42,0.3 0.91,0.67 1.39,1.03 c 0.05,-0.22 -0.21,-0.6 -0.95,-1.48 c -0.9,-1.07 -2.74,-3.25 -4.81,-5.58 c -0.49,-0.51 -0.79,-0.87 -1,-0.69 c -0.18,0.15 -0.14,0.32 0.09,0.64 c 0.11,0.26 0.02,0.7 -0.46,0.85 l -8.33,2.95 c -0.2,0.07 -0.34,0.03 -0.46,-0.12 l -5.61,-6.65 c -0.13,-0.15 -0.12,-0.26 0.01,-0.47 l 2.9,-5.21 c 0.49,-0.92 1.08,-1.68 1.44,-1.98 c 0.54,-0.45 1.15,-0.51 1.93,0.41 l 0.38,0.45 c 0.3,0.36 0.44,0.4 0.61,0.25 c 0.24,-0.2 0.15,-0.43 -0.13,-0.76 c -0.8,-0.95 -1.97,-2.16 -2.75,-3.08 c -0.28,-0.33 -1.57,-2.05 -2.88,-3.6 c -0.03,-0.04 -0.06,-0.07 -0.09,-0.1 c -0.06,0.07 -0.13,0.14 -0.21,0.22 c -0.08,0.07 -0.18,0.16 -0.31,0.26 c 0.21,0.27 0.47,0.62 0.62,0.84 c 0.98,1.52 0.44,2.95 -0.55,4.8 l -12.4,23.28 c -0.56,1.09 -0.73,1.54 -0.48,1.84 l 5.48,-5.9 c -0.08,-0.09 0.02,-0.27 0.11,-0.41 l 5.02,-8.93 c 0.09,-0.13 0.21,-0.17 0.31,-0.05 l 4.63,5.48 c 0.12,0.15 0.06,0.25 -0.05,0.3 l -9.40704,3.64148 c -0.14,0.07 -0.37574,0.22574 -0.44574,0.13574 l -5.59148,5.81639 z"
         id="path5136"
         sodipodi:nodetypes="cscccscscscccccccsccsssssscccccccccccccc"
         inkscape:connector-curvature="0" /><path
         id="path5134"
         d="m 191.38707,522.08393 c 0.08,-0.08 0.15,-0.15 0.21,-0.22 c -0.28,-0.3 -0.47,-0.39 -0.69,-0.21 c -0.18,0.15 -0.14,0.32 0.07,0.56 c 0.03,0.04 0.07,0.08 0.1,0.13 c 0.13,-0.1 0.23,-0.19 0.31,-0.26 z"
         style="fill:none;stroke:#373535;stroke-width:0.25;stroke-linecap:butt;stroke-linejoin:miter;stroke-miterlimit:4;stroke-opacity:1;stroke-dasharray:none"
         inkscape:connector-curvature="0" /><path
         id="path5132"
         d="m 224.69717,557.83393 c 0.32,-2.01 0.37,-2.41 0.08,-2.61 c -0.29,-0.21 -1.06,0.21 -2.24,0.81 c -1.8,0.93 -7.75,4.03 -8.76,4.66 c -0.76,0.47 -5.5,3.14 -8.3,4.75 l -0.13,-0.09 l 7.27,-13.87 c 0.34,-0.61 0.6,-1.05 0.96,-1.56 c 0.43,-0.61 1.04,-0.6 1.68,-0.35 c 0.66,0.28 1.13,0.56 1.45,0.78 c 0.25,0.18 0.52,0.27 0.63,0.11 c 0.21,-0.28 -0.04,-0.55 -0.52,-0.88 c -1.34,-0.95 -2.84,-1.86 -3.41,-2.26 c -0.36,-0.25 -1.02,-0.77 -1.7,-1.29 c -0.01,0.05 -0.04,0.1 -0.09,0.14 c -0.21,0.18 -0.36,0.06 -0.56,-0.18 c -0.31,-0.36 -0.71,-0.78 -1.18,-1.15 c -0.03,-0.02 -0.05,-0.04 -0.08,-0.06 l -0.01,0 c -0.11,0 -0.21,0.05 -0.29,0.17 c -0.12,0.16 0.03,0.36 0.35,0.58 c 0.25,0.18 0.48,0.34 0.89,0.77 c 0.76,0.82 0.14,2.24 -0.47,3.44 l -11.46,23.02 c -0.29,0.61 -0.3,1.03 -0.04,1.21 c 0.25,0.18 0.56,0.16 1.55,-0.38 l 21.37,-11.87 l 2.3,0.38 l 0.71,-4.27 z"
         style="fill:#d4aa00;stroke:#373535;stroke-width:0.25;stroke-linecap:butt;stroke-linejoin:miter;stroke-miterlimit:4;stroke-opacity:1;stroke-dasharray:none"
         inkscape:connector-curvature="0" /><path
         id="path5130"
         d="m 211.61707,546.17383 c 0.05,-0.04 0.08,-0.09 0.09,-0.14 c -0.48,-0.36 -0.97,-0.73 -1.39,-1.03 c -0.19,-0.13 -0.36,-0.22 -0.52,-0.22 c 0.03,0.02 0.05,0.04 0.08,0.06 c 0.47,0.37 0.87,0.79 1.18,1.15 c 0.2,0.24 0.35,0.36 0.56,0.18 z"
         style="fill:none;stroke:#373535;stroke-width:0.25;stroke-linecap:butt;stroke-linejoin:miter;stroke-miterlimit:4;stroke-opacity:1;stroke-dasharray:none"
         inkscape:connector-curvature="0" /><path
         id="path5128"
         d="m 235.25717,562.82373 c -0.78,-0.45 -1.04,-0.49 -1.17,-0.3 c -0.11,0.16 -0.05,0.35 0.1,0.6 c 0.15,0.2 -0.05,0.68 -0.8,1.48 l -11.79,12.7 l -0.12,-0.09 l 2.51,-15.11 l -2.3,-0.38 l -4.13,24.32 c -0.11,0.69 -0.13,1.05 0.16,1.26 c 0.29,0.2 0.7,0.01 1.27,-0.59 l 16.76,-17.68 c 1.71,-1.8 2.67,-2.51 3.83,-2.12 c 1.13,0.36 1.79,0.78 2.21,1.07 c 0.28,0.2 0.53,0.33 0.66,0.14 c 0.18,-0.26 -0.13,-0.62 -0.58,-0.94 c -0.8,-0.56 -5.27,-3.56 -6.61,-4.36 z"
         style="fill:#d4aa00;stroke:#373535;stroke-width:0.25;stroke-linecap:butt;stroke-linejoin:miter;stroke-miterlimit:4;stroke-opacity:1;stroke-dasharray:none"
         inkscape:connector-curvature="0" /><path
         id="path5126"
         d="m 262.07697,576.97413 c 0.67,-0.6 2.34,-1.04 5.34,-0.32 l 0.4,-1.78 c -1.32,-0.31 -2.83,-0.57 -4.24,-0.79 c -1.46,-0.24 -2.82,-0.44 -3.76,-0.67 c -0.42,-0.1 -1.26,-0.31 -2.16,-0.56 c -0.87,-0.22 -1.83,-0.53 -2.59,-0.71 c -0.5,-0.12 -0.79,-0.07 -0.85,0.19 c -0.05,0.19 0.08,0.34 0.53,0.45 c 0.57,0.14 1.01,0.32 1.33,0.48 c 0.72,0.34 0.71,1.22 0.59,2.35 c -0.19,1.64 -0.92,4.64 -1.77,8.12 l -1.61,6.67 c -1.4,5.77 -1.66,6.83 -2.02,8.02 c -0.39,1.27 -0.84,1.81 -2.16,1.77 c -0.32,0 -0.97,-0.12 -1.5,-0.25 c -0.42,-0.1 -0.67,-0.08 -0.73,0.19 c -0.07,0.26 0.18,0.4 0.75,0.54 c 2.01,0.49 4.42,0.95 5.49,1.21 c 1.07,0.26 3.12,0.86 5.2,1.38 l 0.43,-1.78 c -0.76,-0.18 -2.13,-0.64 -2.4,-0.86 c -0.3,-0.24 -0.37,-0.45 -0.27,-0.87 c 0.27,-1.3 1.07,-4.6 1.8,-7.59 l 1.16,-4.78 c 0.97,-4.01 1.72,-6.92 1.93,-7.63 c 0.27,-0.94 0.71,-2.44 1.11,-2.78 z"
         style="fill:#d4aa00;stroke:#373535;stroke-width:0.25;stroke-linecap:butt;stroke-linejoin:miter;stroke-miterlimit:4;stroke-opacity:1;stroke-dasharray:none"
         inkscape:connector-curvature="0" /><path
         id="path5124"
         d="m 279.60677,582.46383 c -1.31,-2.21 -4.6,-5.85 -11.61,-7.55 c -0.06,-0.01 -0.12,-0.03 -0.18,-0.04 l -0.4,1.78 c 3.86,0.94 6.26,2.32 8.05,4.85 c 1.92,2.67 1.84,6.3 0.9,10.2 c -1.17,4.82 -3.93,7.44 -5.94,8.6 c -4.29,2.49 -8.72,1.9 -11.68,1.18 l -0.43,1.78 c 0.21,0.05 0.41,0.1 0.61,0.15 c 4.73,1.15 11.06,2.68 16.24,-0.64 c 2.37,-1.51 4.92,-4.23 6.01,-8.74 c 1.16,-4.77 0.03,-8.9 -1.57,-11.57 z"
         style="fill:#d4aa00;stroke:#373535;stroke-width:0.25;stroke-linecap:butt;stroke-linejoin:miter;stroke-miterlimit:4;stroke-opacity:1;stroke-dasharray:none"
         inkscape:connector-curvature="0" /><path
         id="path5122"
         d="m 295.53697,605.54393 c -0.03,-1.25 0.01,-2.34 0.25,-8.26 l 0.28,-6.86 c 0.15,-3.78 0.27,-6.86 0.49,-8.53 c 0.16,-1.05 0.46,-1.74 1.64,-1.85 c 0.55,-0.05 1.41,-0.1 1.99,-0.07 c 0.43,0.01 0.63,-0.09 0.64,-0.29 c 0.01,-0.27 -0.3,-0.4 -0.73,-0.42 c -2.57,-0.1 -5.03,-0.08 -6.08,-0.12 c -0.9,-0.04 -3.35,-0.26 -4.91,-0.32 c -0.5,-0.02 -0.78,0.09 -0.79,0.36 c -0.01,0.2 0.14,0.32 0.61,0.34 c 0.58,0.02 1.05,0.12 1.39,0.21 c 0.78,0.19 0.99,0.86 1.06,1.99 c 0.13,1.65 0,4.73 -0.15,8.51 l -0.27,6.86 c -0.24,5.92 -0.28,7.01 -0.41,8.25 c -0.13,1.33 -0.55,1.97 -1.41,2.13 c -0.43,0.1 -0.94,0.12 -1.41,0.1 c -0.39,-0.01 -0.63,0.06 -0.64,0.37 c -0.01,0.23 0.3,0.32 0.92,0.35 c 1.48,0.06 3.94,0.04 5.07,0.08 c 0.98,0.04 3.27,0.25 4.75,0.31 c 0.51,0.02 0.83,-0.05 0.84,-0.28 c 0.01,-0.31 -0.22,-0.4 -0.61,-0.41 c -0.39,-0.02 -0.7,-0.07 -1.17,-0.17 c -1.04,-0.23 -1.33,-0.91 -1.35,-2.28 z"
         style="fill:#d4aa00;stroke:#373535;stroke-width:0.25;stroke-linecap:butt;stroke-linejoin:miter;stroke-miterlimit:4;stroke-opacity:1;stroke-dasharray:none"
         inkscape:connector-curvature="0" /><path
         id="path5120"
         d="m 319.02531,608.22422 c 0.35,-0.04 0.41176,-0.38059 0.69176,-1.32059 c 0.66,-2.25 4.87,-18.81 6.6,-25.01 c 0.97,-3.46 1.98,-4.27 2.75,-4.59 c 0.09,-0.13 0.27,-0.23 0.48,-0.31 c 0.48,-0.2 1.07,-0.42 1.65,-0.62 c -0.15,-0.17 -0.61,-0.16 -1.76,-0.02 c -1.39,0.18 -4.22,0.53 -7.301,1 c -0.699,0.13 -1.159,0.19 -1.129,0.46 c 0.03,0.23 0.2,0.29 0.589,0.28 c 0.281,0.04 0.591,0.35 0.46,0.84 l -2.059,8.6 c -0.06,0.2 -0.17,0.29 -0.361,0.32 l -8.629,1.08 c -0.19,0.03 -0.28,-0.04 -0.38,-0.26 l -2.79,-5.28 c -0.51,-0.91 -0.82,-1.82 -0.88,-2.28 c -0.09,-0.7 0.2,-1.25 1.4,-1.4 l 0.58,-0.07 c 0.46,-0.06 0.57,-0.15 0.54,-0.38 c -0.04,-0.31 -0.28,-0.36 -0.71,-0.31 c -1.23,0.16 -2.881,0.48 -4.08,0.63 c -0.43,0.06 -2.57,0.21 -4.58,0.46 c -0.511,0.07 -0.73,0.17 -0.69,0.48 c 0.03,0.23 0.19,0.29 0.5,0.25 c 0.35,-0.04 0.9,-0.07 1.21,-0.07 c 1.81,0.01 2.71,1.23 3.73,3.07 l 12.77,23.08 c 0.61,1.06 0.89,1.46 1.28,1.41 l -1.97,-7.81 c -0.11,0.01 -0.21,-0.17 -0.27,-0.32 l -4.76,-9.07 c -0.061,-0.15 -0.03,-0.27 0.12,-0.29 l 7.12,-0.9 c 0.19,-0.02 0.25,0.09 0.22,0.21 l -1.92528,8.89641 c -0.02,0.16 -0.10982,0.99062 -0.34706,1.35535 l 1.93058,7.88883 z"
         style="fill:#d4aa00;stroke:#373535;stroke-width:0.25;stroke-linecap:butt;stroke-linejoin:miter;stroke-miterlimit:4;stroke-opacity:1;stroke-dasharray:none"
         sodipodi:nodetypes="ccccscccscccccccsccscccssscccccccccccc"
         inkscape:connector-curvature="0" /><path
         id="path5118"
         d="m 347.61707,602.40383 c 0.29,-0.11 0.43,-0.38 0.52,-1.51 l 1.61,-24.38 l 1.58,-1.74 l -3.2,-2.91 c -1.52,-1.36 -1.83,-1.61 -2.16,-1.48 c -0.32,0.13 -0.39,1 -0.53,2.32 c -0.2,2.01 -0.81,8.7 -0.841,9.89 c -0.019,0.89 -0.339,6.32 -0.509,9.54 l -0.14,0.06 l -7.71,-13.62 c -0.33,-0.62 -0.56,-1.08 -0.79,-1.66 c -0.28,-0.68 0.06,-1.2 0.609,-1.59 c 0.601,-0.41 1.091,-0.65 1.451,-0.8 c 0.29,-0.12 0.51,-0.29 0.44,-0.47 c -0.13,-0.33 -0.49,-0.27 -1.03,-0.05 c -1.52,0.62 -3.1,1.38 -3.75,1.65 c -0.4,0.16 -1.17,0.43 -1.97,0.72 c 0.04,0.04 0.06,0.09 0.07,0.15 c 0.03,0.27 -0.16,0.33 -0.47,0.37 c -0.46,0.06 -1.04,0.17 -1.6,0.36 c -0.04,0.02 -0.09,0.03 -0.13,0.05 c -0.06,0.1 -0.07,0.21 -0.011,0.35 c 0.071,0.18 0.321,0.16 0.681,0.02 c 0.29,-0.12 0.54,-0.22 1.13,-0.33 c 1.1,-0.2 1.96,1.1 2.63,2.25 l 13.12,22.12 c 0.36,0.57 0.71,0.81 1,0.69 z"
         style="fill:#d4aa00;stroke:#373535;stroke-width:0.25;stroke-linecap:butt;stroke-linejoin:miter;stroke-miterlimit:4;stroke-opacity:1;stroke-dasharray:none"
         inkscape:connector-curvature="0" /><path
         id="path5116"
         d="m 330.79677,576.89403 c 0.311,-0.04 0.5,-0.1 0.471,-0.37 c -0.011,-0.06 -0.031,-0.11 -0.071,-0.15 c -0.58,0.2 -1.17,0.42 -1.65,0.62 c -0.21,0.08 -0.39,0.18 -0.479,0.31 c 0.04,-0.02 0.089,-0.03 0.129,-0.05 c 0.56,-0.19 1.14,-0.3 1.6,-0.36 z"
         style="fill:none;stroke:#373535;stroke-width:0.25;stroke-linecap:butt;stroke-linejoin:miter;stroke-miterlimit:4;stroke-opacity:1;stroke-dasharray:none"
         inkscape:connector-curvature="0" /><path
         id="path5114"
         d="m 369.08677,593.71383 c 0.32,-0.13 0.4,-0.58 0.2,-1.38 l -5.76,-23.67 c -0.589,-2.41 -0.66,-3.61 0.3,-4.37 c 0.91,-0.75 1.62,-1.08 2.09,-1.27 c 0.33,-0.13 0.57,-0.27 0.481,-0.49 c -0.121,-0.29 -0.601,-0.22 -1.101,-0.01 c -0.91,0.36 -5.85,2.49 -7.25,3.18 c -0.81,0.41 -0.98,0.61 -0.89,0.82 c 0.071,0.19 0.26,0.24 0.56,0.24 c 0.24,-0.01 0.54,0.41 0.81,1.48 l 4.27,16.79 l -0.149,0.05 l -11.321,-10.31 l -1.58,1.74 l 18.191,16.66 c 0.529,0.46 0.819,0.67 1.149,0.54 z"
         style="fill:#d4aa00;stroke:#373535;stroke-width:0.25;stroke-linecap:butt;stroke-linejoin:miter;stroke-miterlimit:4;stroke-opacity:1;stroke-dasharray:none"
         inkscape:connector-curvature="0" /><path
         id="path5112"
         d="m 380.41687,551.88383 c 0.811,-0.64 2.15,-1.45 3.86,-1.73 l -0.53,-1.9 c -1.979,0.61 -3.95,1.64 -5.82,3.12 c -8.78,6.94 -7.13,16.32 -2.85,21.74 c 3.23,4.08 9.3,7.43 16.18,5.25 l -0.58,-1.96 c -3.07,0.47 -6.75,-0.78 -10.63,-5.68 c -5.029,-6.36 -5.5,-14.19 0.37,-18.84 z"
         style="fill:#d4aa00;stroke:#373535;stroke-width:0.25;stroke-linecap:butt;stroke-linejoin:miter;stroke-miterlimit:4;stroke-opacity:1;stroke-dasharray:none"
         inkscape:connector-curvature="0" /><path
         style="fill:#d4aa00;stroke:#373535;stroke-width:0.25;stroke-linecap:butt;stroke-linejoin:miter;stroke-miterlimit:4;stroke-opacity:1;stroke-dasharray:none"
         d="m 397.19717,575.11373 c 7.609,-6.02 8.85,-14.2 3.31,-21.21 c -4.201,-5.32 -10.55,-7.56 -16.76,-5.65 l 0.53,1.9 c 2.83,-0.46 6.7,0.5 11.05,6 c 5.42,6.86 4.84,14.23 -0.18,18.2 c -1.261,0.99 -2.69117,1.78 -4.39217,2.05 l 0.73865,1.80234 c 1.93,-0.61 3.69352,-1.50234 5.70352,-3.09234 z"
         id="path5110"
         inkscape:connector-curvature="0" /><path
         id="path5108"
         d="m 435.01747,532.26363 c 0.3,-0.4 0.5,-0.74 0.25,-0.93 c -0.19,-0.14 -0.431,-0.02 -0.7,0.36 c -0.24,0.31 -0.42,0.57 -0.79,0.87 c -0.901,0.7 -1.74,0.46 -3.531,-0.8 l -20.07,-14.25 c -0.689,-0.51 -1.059,-0.59 -1.269,-0.31 c -0.25,0.34 -0.191,0.98 -0.101,1.58 c 0.431,3.36 1.58,10.41 2.41,16.06 c 0.87,5.92 2.231,12.3 2.41,13.3 l -0.07,0.1 l -12.93,-10.06 c -2.41,-1.87 -2.92,-2.88 -2.679,-3.67 c 0.21,-0.67 0.609,-1.29 0.979,-1.8 c 0.261,-0.34 0.33,-0.58 0.151,-0.71 c -0.25,-0.19 -0.531,0.05 -0.85,0.49 c -1.5,2.04 -2.33,3.36 -2.771,3.96 c -0.21,0.28 -1.389,1.69 -2.599,3.32 c -0.301,0.41 -0.471,0.72 -0.191,0.92 c 0.191,0.14 0.39,0 0.621,-0.31 c 0.299,-0.41 0.75,-0.95 1.2,-1.3 c 0.849,-0.63 1.849,-0.09 4.609,1.89 l 18.801,13.42 c 0.62,0.46 1.13,0.69 1.359,0.37 c 0.261,-0.34 0.061,-0.92 -0.109,-1.87 c -0.13,-0.68 -1.74,-9.23 -2.91,-17.16 c -0.561,-3.71 -1.96,-11.28 -2.071,-12.19 l 0.111,-0.15 l 13.87,10.7 c 1.89,1.44 2.279,2.16 2.04,3.15 c -0.16,0.61 -0.71,1.36 -1.04,1.8 c -0.271,0.38 -0.271,0.57 -0.08,0.71 c 0.25,0.18 0.529,-0.14 0.88,-0.61 c 1.2,-1.63 2.219,-3.21 2.71,-3.87 c 0.25,-0.34 1.219,-1.46 2.36,-3.01 z"
         style="fill:#d4aa00;stroke:#373535;stroke-width:0.25;stroke-linecap:butt;stroke-linejoin:miter;stroke-miterlimit:4;stroke-opacity:1;stroke-dasharray:none"
         inkscape:connector-curvature="0" /><path
         id="path5106"
         d="m 440.37677,520.94383 c -0.16,0.4 -0.17,0.64 0.09,0.74 c 0.261,0.1 0.431,-0.13 0.63,-0.68 c 0.73,-1.93 1.49,-4.27 1.881,-5.29 c 0.329,-0.86 0.969,-2.36 1.619,-3.98 l -1.74,-0.68 c -0.27,0.58 -0.57,1.15 -0.73,1.29 c -0.27,0.28 -0.49,0.32 -0.899,0.17 c -1.25,-0.44 -4.421,-1.64 -7.301,-2.73 l -4.6,-1.74 c -3.86,-1.46 -6.66,-2.56 -7.34,-2.86 c -0.9,-0.38 -2.33,-1.01 -2.62,-1.45 c -0.51,-0.74 -0.74,-2.45 0.35,-5.33 l -1.73,-0.61 c -0.46,1.27 -0.9,2.73 -1.299,4.09 c -0.411,1.43 -0.781,2.74 -1.131,3.66 c -0.15,0.4 -0.46,1.2 -0.82,2.06 c -0.32,0.84 -0.75,1.76 -1.03,2.49 c -0.18,0.47 -0.17,0.77 0.09,0.87 c 0.181,0.07 0.351,-0.04 0.51,-0.48 c 0.211,-0.54 0.45,-0.95 0.65,-1.25 c 0.42,-0.68 1.29,-0.56 2.4,-0.3 c 1.6,0.4 4.48,1.49 7.84,2.76 l 6.42,2.43 c 5.54,2.1 6.56,2.48 7.7,3 c 1.21,0.54 1.69,1.05 1.49,2.35 c -0.039,0.32 -0.24,0.96 -0.43,1.47 z"
         style="fill:#d4aa00;stroke:#373535;stroke-width:0.25;stroke-linecap:butt;stroke-linejoin:miter;stroke-miterlimit:4;stroke-opacity:1;stroke-dasharray:none"
         inkscape:connector-curvature="0" /><path
         id="path5104"
         d="m 419.71667,498.40383 c 1.41,-3.72 3.08,-5.93 5.801,-7.4 c 2.889,-1.57 6.489,-1.04 10.239,0.38 c 4.641,1.75 6.9,4.82 7.8,6.95 c 1.94,4.57 0.801,8.9 -0.279,11.74 c -0.111,0.27 -0.26,0.63 -0.42,0.98 l 1.739,0.68 c 0.21,-0.52 0.421,-1.06 0.62,-1.59 c 1.721,-4.56 4.03,-10.65 1.38,-16.2 c -1.21,-2.54 -3.59,-5.4 -7.93,-7.05 c -4.59,-1.74 -8.83,-1.13 -11.679,0.13 c -2.351,1.02 -6.371,3.84 -8.931,10.58 c -0.02,0.06 -0.05,0.12 -0.069,0.19 l 1.729,0.61 z"
         style="fill:#d4aa00;stroke:#373535;stroke-width:0.25;stroke-linecap:butt;stroke-linejoin:miter;stroke-miterlimit:4;stroke-opacity:1;stroke-dasharray:none"
         inkscape:connector-curvature="0" /><path
         id="path5102"
         d="m 299.44025,575.24363 c 68.162,-0.303 123.73672,-55.648 123.73672,-123.88 c 0,-68.42 -55.47,-123.88 -123.89,-123.88 c -68.41,0 -123.88,55.46 -123.88,123.88 c 0,68.42 55.47,123.88 123.88,123.88 l 0,-2.88 c -66.82,0 -120.99,-54.17 -120.99,-121 c 0,-66.82 54.17,-120.99 120.99,-120.99 c 66.83,0 121,54.17 121,120.99 c 0,66.643 -54.28965,120.697 -120.86065,121 l 0.0139,2.88 z"
         style="fill:#d4aa00;stroke:#373535;stroke-width:0.25;stroke-linecap:butt;stroke-linejoin:miter;stroke-miterlimit:4;stroke-opacity:1;stroke-dasharray:none"
         sodipodi:nodetypes="csssccssscc"
         inkscape:connector-curvature="0" /><path
         id="path5100"
         d="m 299.48206,617.31393 c 91.228,-0.494 165.75491,-74.606 165.75491,-165.95 c 0,-91.65 -74.3,-165.94 -165.95,-165.94 c -91.64,0 -165.94,74.29 -165.94,165.94 c 0,91.65 74.3,165.95 165.94,165.95 l 0,-3.13 c -89.92,0 -162.81,-72.9 -162.81,-162.82 c 0,-89.92 72.89,-162.81 162.81,-162.81 c 89.92,0 162.82,72.89 162.82,162.81 c 0,89.669 -73.07778,162.415 -162.65278,162.82 l 0.0279,3.13 z"
         style="fill:#d4aa00;stroke:#373535;stroke-width:0.25;stroke-linecap:butt;stroke-linejoin:miter;stroke-miterlimit:4;stroke-opacity:1;stroke-dasharray:none"
         sodipodi:nodetypes="csssccssscc"
         inkscape:connector-curvature="0" /><path
         id="path5098"
         d="m 204.86707,485.19383 c -0.01,0.12 -0.03,0.24 -0.2,0.2 c -3.34,-3.58 -7.47,-7.72 -10.78,-11.19 c -0.32,-0.33 -2,-1.42 -1.04,-1.45 l 9.95,0 c 0.74,4.09 1.43,8.24 2.07,12.44 z"
         style="fill:#b3b3b3;stroke:#373535;stroke-width:0.25;stroke-linecap:butt;stroke-linejoin:miter;stroke-miterlimit:4;stroke-opacity:1;stroke-dasharray:none"
         inkscape:connector-curvature="0" /><path
         id="path5096"
         d="m 222.90707,472.75393 c 0.17,0.33 -0.26,0.66 -0.42,0.83 c -0.28,0.3 -0.78,0.54 -1.03,0.83 c -0.27,0.29 -0.36,0.74 -0.62,1.03 c -0.29,0.32 -0.74,0.52 -1.04,0.83 c -3.51,3.58 -7.02,7.27 -10.57,10.57 c -0.01,0.13 -0.03,0.25 -0.21,0.21 c -0.76,-4.77 -1.76,-9.29 -2.28,-14.3 l 16.17,0 z"
         style="fill:#b3b3b3;stroke:#373535;stroke-width:0.25;stroke-linecap:butt;stroke-linejoin:miter;stroke-miterlimit:4;stroke-opacity:1;stroke-dasharray:none"
         inkscape:connector-curvature="0" /><path
         id="path5094"
         d="m 224.35677,439.17383 c 0.48,-0.42 0.48,0.09 0,0.2 c -0.12,0.8 -0.85,1.28 -1.24,1.87 c -0.21,0.31 -0.25,0.77 -0.42,1.04 c -0.23,0.34 -0.62,0.51 -0.83,0.83 c -0.21,0.31 -0.2,0.7 -0.41,1.03 c -0.22,0.33 -0.59,0.46 -0.83,0.83 c -0.18,0.27 -0.23,0.75 -0.42,1.04 c -0.22,0.34 -0.62,0.52 -0.83,0.83 c -0.17,0.26 -0.2,0.72 -0.41,1.03 c -0.18,0.28 -0.63,0.54 -0.83,0.83 c -0.19,0.3 -0.22,0.74 -0.41,1.04 c -0.2,0.3 -0.63,0.52 -0.83,0.83 c -0.2,0.29 -0.24,0.76 -0.42,1.03 c -0.23,0.37 -0.59,0.47 -0.83,0.83 c -0.17,0.28 -0.21,0.7 -0.41,1.04 c -0.28,0.46 -0.86,1 -1.04,1.24 c -0.12,0.17 -0.1,0.47 -0.2,0.63 c -0.31,0.45 -0.86,0.99 -1.04,1.24 c -0.13,0.17 -0.11,0.47 -0.21,0.62 c -0.3,0.45 -0.85,1 -1.04,1.24 c -0.12,0.17 -0.1,0.47 -0.2,0.63 c -0.31,0.45 -0.85,0.99 -1.04,1.24 c -0.13,0.17 -0.1,0.47 -0.21,0.62 c -0.3,0.45 -0.85,1 -1.03,1.25 c -0.13,0.16 -0.11,0.47 -0.21,0.62 c -0.31,0.45 -0.85,0.99 -1.04,1.24 c -0.12,0.17 -0.1,0.47 -0.2,0.62 c -0.31,0.45 -0.85,1 -1.04,1.25 c -0.13,0.17 -0.1,0.47 -0.21,0.62 c -0.68,1.01 -1.44,2.24 -2.28,2.49 c -1.33,0.39 -3.28,0 -4.77,0 l -4.76,0 c -0.22,-0.5 0.4,-0.6 0.62,-0.83 c 9.36,-9.99 19.59,-19.37 29.02,-29.02 z"
         style="fill:#b3b3b3;stroke:#373535;stroke-width:0.25;stroke-linecap:butt;stroke-linejoin:miter;stroke-miterlimit:4;stroke-opacity:1;stroke-dasharray:none"
         inkscape:connector-curvature="0" /><path
         id="path5092"
         d="m 247.15707,487.88383 c 0.4,0.27 1.02,0.53 1.24,1.04 c -5.11,3.94 -11.48,9.43 -16.79,13.47 c -0.56,0.43 -0.79,0.72 -1.24,0.83 c -0.92,0.23 -2.7,0 -3.94,0 c -1.31,0 -3.01,0.29 -3.94,0 c -0.33,-0.11 -0.36,-0.37 -0.62,-0.62 c -3.46,-3.38 -7.88,-7.68 -11.4,-11.4 c 0.43,-0.89 1.2,-1.61 1.87,-2.28 c 4.15,-4.16 8.65,-8.45 12.64,-12.44 c 0.71,-0.71 1.25,-1.72 2.28,-2.07 c 5.11,3.85 10.75,7.3 15.96,10.78 c 0.99,0.65 1.97,1.44 2.9,1.86 c 0.07,0.03 0.13,0.36 0.21,0.41 c 0.24,0.16 0.58,0.25 0.83,0.42 z"
         style="fill:#b3b3b3;stroke:#373535;stroke-width:0.25;stroke-linecap:butt;stroke-linejoin:miter;stroke-miterlimit:4;stroke-opacity:1;stroke-dasharray:none"
         inkscape:connector-curvature="0" /><path
         id="path5090"
         d="m 249.85677,484.77393 c 0.11,0 0.23,0.17 0,0.21 c -0.28,-0.06 -0.43,-0.29 -0.63,-0.42 c -4.37,-2.96 -9.02,-5.88 -13.26,-8.7 c -1.49,-1 -2.97,-2.01 -4.36,-3.11 l 16.59,0 c 0.6,3.96 1.27,7.84 1.66,12.02 z"
         style="fill:#b3b3b3;stroke:#373535;stroke-width:0.25;stroke-linecap:butt;stroke-linejoin:miter;stroke-miterlimit:4;stroke-opacity:1;stroke-dasharray:none"
         inkscape:connector-curvature="0" /><path
         id="path5088"
         d="m 252.54677,503.22413 c -5.18,-0.14 -10.92,0.28 -15.75,-0.21 c 2.16,-1.53 4.49,-3.69 6.42,-5.18 c 0.17,-0.13 0.27,-0.3 0.42,-0.41 c 0.16,-0.13 0.45,-0.07 0.62,-0.21 c 0.24,-0.2 0.38,-0.63 0.62,-0.83 c 0.16,-0.13 0.48,-0.1 0.62,-0.21 c 0.14,-0.1 0.27,-0.29 0.42,-0.41 c 0.9,-0.73 1.72,-1.49 2.48,-2.08 c 0.17,-0.12 0.27,-0.3 0.42,-0.41 c 0.17,-0.13 0.43,-0.07 0.62,-0.21 c 0.45,-0.34 0.71,-0.89 1.25,-1.03 c 0.06,-0.02 0.22,-0.32 0.2,0.2 c 0.73,3.49 1.1,7.33 1.66,10.99 z"
         style="fill:#b3b3b3;stroke:#373535;stroke-width:0.25;stroke-linecap:butt;stroke-linejoin:miter;stroke-miterlimit:4;stroke-opacity:1;stroke-dasharray:none"
         inkscape:connector-curvature="0" /><path
         id="path5086"
         d="m 256.48717,423.41403 c -4.85,7.1 -9.65,14.5 -15.13,22.8 c -1.67,2.53 -3.67,5.46 -5.19,7.88 c -0.54,0.87 -0.98,1.36 -1.45,2.07 c -0.73,1.12 -1.22,1.96 -1.86,2.91 c -0.43,0.63 -0.8,1.33 -1.04,1.86 c -0.03,0.07 -0.36,0.13 -0.41,0.21 c -0.15,0.24 -0.23,0.55 -0.42,0.83 c -1,1.52 -1.87,2.73 -2.9,4.35 c -0.79,1.24 -1.32,2.44 -2.07,2.7 c -0.9,0.3 -2.65,0 -3.94,0 l -11.82,0 c -0.22,-0.51 0.71,-0.91 1.04,-1.25 c 7.18,-7.38 14.57,-14.57 21.77,-21.76 c 0.97,-0.97 2.1,-1.76 3.1,-2.7 c 0.99,-0.92 1.95,-1.94 2.91,-2.9 c 5.29,-5.29 10.79,-10.94 15.96,-15.96 c 0.49,-0.48 1.08,-1.15 1.45,-1.04 z"
         style="fill:#b3b3b3;stroke:#373535;stroke-width:0.25;stroke-linecap:butt;stroke-linejoin:miter;stroke-miterlimit:4;stroke-opacity:1;stroke-dasharray:none"
         inkscape:connector-curvature="0" /><path
         id="path5084"
         d="m 258.34707,427.14403 c 0.26,-0.26 0.53,-0.97 0.83,-0.62 c -0.12,0.01 -0.24,0.03 -0.2,0.21 c -3.11,14.17 -6.53,28.02 -9.54,42.29 l -18.24,0 c -0.41,0.01 0.23,-0.86 0.21,-0.83 c 0.16,-0.18 0.24,-0.45 0.41,-0.62 c 0.44,-0.46 0.64,-1.02 0.83,-1.46 c 0.03,-0.06 0.36,-0.12 0.42,-0.2 c 0.15,-0.24 0.25,-0.59 0.41,-0.83 c 0.29,-0.45 0.85,-1.47 1.04,-1.66 c 0.16,-0.17 0.24,-0.45 0.41,-0.62 c 0.49,-0.51 0.9,-1.13 1.24,-1.66 c 0.3,-0.45 0.54,-0.97 0.83,-1.45 c 0.3,-0.47 0.86,-1.47 1.04,-1.66 c 0.17,-0.17 0.25,-0.45 0.42,-0.62 c 0.49,-0.51 0.88,-1.12 1.24,-1.66 c 0.3,-0.45 0.54,-1.01 0.83,-1.45 c 0.31,-0.46 0.75,-0.81 1.03,-1.24 c 0.29,-0.45 0.34,-0.99 0.63,-1.46 c 0.27,-0.44 0.74,-0.8 1.03,-1.24 c 0.66,-1.01 1.45,-2.18 1.87,-3.11 c 0.03,-0.07 0.36,-0.13 0.41,-0.21 c 0.07,-0.09 -0.04,-0.3 0,-0.41 c 0.03,-0.07 0.37,-0.13 0.42,-0.21 c 0.06,-0.09 -0.05,-0.31 0,-0.41 c 0.03,-0.07 0.36,-0.13 0.41,-0.21 c 0.14,-0.21 0.27,-0.6 0.42,-0.83 c 0.66,-1.03 1.45,-2.19 1.86,-3.11 c 0.03,-0.07 0.37,-0.13 0.42,-0.21 c 0.06,-0.09 -0.05,-0.3 0,-0.41 c 0.03,-0.07 0.36,-0.13 0.41,-0.21 c 0.06,-0.09 -0.05,-0.31 0,-0.41 c 0.03,-0.07 0.36,-0.13 0.42,-0.21 c 0.15,-0.24 0.25,-0.58 0.41,-0.83 c 0.68,-1.02 1.43,-2.14 1.87,-3.11 c 0.03,-0.06 0.36,-0.13 0.41,-0.2 c 0.06,-0.1 -0.05,-0.31 0,-0.42 c 0.03,-0.07 0.36,-0.13 0.41,-0.21 c 0.07,-0.09 -0.04,-0.31 0,-0.41 c 0.04,-0.07 0.37,-0.13 0.42,-0.21 c 0.14,-0.22 0.28,-0.62 0.41,-0.83 c 1.24,-1.86 2.4,-3.61 3.53,-5.39 c 0.3,-0.47 0.83,-1.44 1.03,-1.66 z"
         style="fill:#b3b3b3;stroke:#373535;stroke-width:0.25;stroke-linecap:butt;stroke-linejoin:miter;stroke-miterlimit:4;stroke-opacity:1;stroke-dasharray:none"
         inkscape:connector-curvature="0" /><path
         id="path5082"
         d="m 268.09707,472.75393 c 0.31,0.38 -0.26,0.48 -0.42,0.62 c -0.5,0.46 -1.05,0.73 -1.45,1.04 c -0.13,0.1 -0.26,0.29 -0.41,0.41 c -0.67,0.53 -1.32,1.01 -1.87,1.45 c -0.31,0.25 -0.51,0.57 -0.83,0.83 c -3.03,2.47 -6.22,4.89 -9.12,7.26 c -0.01,0.12 -0.03,0.24 -0.21,0.2 c -0.63,-3.85 -1.17,-7.8 -1.65,-11.81 l 15.96,0 z"
         style="fill:#b3b3b3;stroke:#373535;stroke-width:0.25;stroke-linecap:butt;stroke-linejoin:miter;stroke-miterlimit:4;stroke-opacity:1;stroke-dasharray:none"
         inkscape:connector-curvature="0" /><path
         id="path5080"
         d="m 269.95687,503.22413 l -13.47,0 c -0.01,-0.27 -0.27,-0.29 -0.21,-0.62 c -0.17,-3.15 -1.25,-6.49 -1.03,-9.33 c 4.8,3.41 9.9,6.54 14.71,9.95 z"
         style="fill:#b3b3b3;stroke:#373535;stroke-width:0.25;stroke-linecap:butt;stroke-linejoin:miter;stroke-miterlimit:4;stroke-opacity:1;stroke-dasharray:none"
         inkscape:connector-curvature="0" /><path
         id="path5078"
         d="m 283.84707,421.75393 c -3.81,15.67 -7.33,31.64 -11.19,47.27 l -18.45,0 c -0.24,-0.55 0.4,-0.88 0.62,-1.25 c 0.67,-1.11 1.3,-2.01 1.87,-2.9 c 0.33,-0.53 0.5,-1.13 0.83,-1.66 c 0.94,-1.52 2.06,-2.99 2.9,-4.35 c 0.31,-0.51 0.5,-1.14 0.83,-1.66 c 0.27,-0.43 0.76,-0.81 1.03,-1.24 c 0.33,-0.53 0.51,-1.15 0.83,-1.66 c 0.61,-0.97 1.26,-1.95 1.87,-2.9 c 6.29,-9.89 12.45,-19.9 18.65,-29.65 c 0,-0.11 0.17,-0.23 0.21,0 z"
         style="fill:#b3b3b3;stroke:#373535;stroke-width:0.25;stroke-linecap:butt;stroke-linejoin:miter;stroke-miterlimit:4;stroke-opacity:1;stroke-dasharray:none"
         inkscape:connector-curvature="0" /><path
         id="path5076"
         d="m 285.50717,378.43403 c 0.55,-0.53 0.89,-1.42 1.45,-1.24 c -1.09,1.06 -1.67,2.49 -2.49,3.73 c -0.52,0.8 -1.29,1.69 -1.66,2.28 c -0.11,0.19 -0.07,0.42 -0.2,0.62 c -0.2,0.28 -0.62,0.52 -0.83,0.83 c -0.2,0.29 -0.24,0.76 -0.42,1.04 c -0.24,0.36 -0.59,0.46 -0.83,0.83 c -0.12,0.19 -0.1,0.45 -0.2,0.62 c -0.08,0.12 -0.33,0.27 -0.42,0.41 c -3.51,5.68 -7.24,11.17 -10.78,16.59 c -1.23,1.89 -2.49,3.94 -3.93,5.38 c -1.52,1.52 -3.14,2.96 -4.57,4.36 c -6.06,5.94 -12.18,11.98 -18.03,17.82 c -6.02,6.03 -12.18,11.77 -18.03,17.62 c -1.52,1.52 -3.17,3.71 -4.77,4.77 c -0.53,0.35 -0.77,0.98 -1.25,0.83 c 1.07,-1.4 2.33,-3.07 3.11,-4.35 c 0.17,-0.28 0.23,-0.75 0.42,-1.04 c 0.06,-0.09 0.34,-0.11 0.41,-0.21 c 0.13,-0.16 0.11,-0.47 0.21,-0.62 c 0.31,-0.45 0.85,-0.99 1.04,-1.24 c 0.13,-0.17 0.1,-0.47 0.21,-0.62 c 3.14,-4.52 6.2,-9.12 9.12,-13.68 c 0.16,-0.27 0.44,-0.55 0.62,-0.83 c 0.18,-0.3 0.24,-0.77 0.41,-1.04 c 0.06,-0.09 0.35,-0.11 0.42,-0.21 c 0.12,-0.17 0.1,-0.47 0.2,-0.62 c 0.31,-0.45 0.85,-0.99 1.04,-1.24 c 0.13,-0.17 0.11,-0.47 0.21,-0.62 c 0.3,-0.46 0.85,-1 1.03,-1.25 c 0.13,-0.17 0.11,-0.47 0.21,-0.62 c 1.08,-1.59 2.39,-2.6 3.73,-3.94 c 7.19,-7.19 14.32,-14.52 21.35,-21.56 c 7.7,-7.7 15.65,-15.42 23.22,-22.8 z"
         style="fill:#b3b3b3;stroke:#373535;stroke-width:0.25;stroke-linecap:butt;stroke-linejoin:miter;stroke-miterlimit:4;stroke-opacity:1;stroke-dasharray:none"
         inkscape:connector-curvature="0" /><path
         id="path5074"
         d="m 295.86707,370.55373 c -2.68,11.41 -5.54,22.97 -8.08,34 c -0.18,0.79 -0.42,1.6 -0.62,2.49 c -0.18,0.79 -0.21,2.17 -0.42,2.69 c -0.06,0.17 -0.45,0.37 -0.62,0.62 c -0.14,0.23 -0.25,0.57 -0.41,0.83 c -0.72,1.14 -1.22,2.06 -1.87,3.11 c -2.65,4.31 -5.82,8.92 -8.29,13.06 c -0.52,0.86 -0.96,1.69 -1.45,2.49 c -0.76,1.24 -1.85,2.74 -2.49,3.73 c -0.44,0.68 -0.72,1.19 -1.04,1.66 c -0.18,0.28 -0.26,0.59 -0.41,0.83 c -0.33,0.51 -0.74,0.97 -1.04,1.45 c -0.32,0.52 -0.52,1.17 -0.83,1.66 c -0.34,0.53 -0.72,0.94 -1.03,1.45 c -1.99,3.16 -3.94,6.33 -5.81,9.33 c -0.67,1.08 -1.42,2.06 -2.07,3.11 c -0.32,0.52 -0.51,1.15 -0.83,1.65 c -0.32,0.52 -0.72,0.96 -1.03,1.45 c -0.66,1.05 -1.19,2.21 -2.08,3.11 c 2.97,-13.09 5.94,-26.57 8.92,-39.38 c 0.21,-0.93 0.3,-1.93 0.62,-2.7 c 0.32,-0.77 1.1,-1.54 1.45,-2.07 c 0.86,-1.28 1.51,-2.57 2.28,-3.73 c 5.19,-7.79 10.4,-15.74 15.34,-23.22 c 1.33,-2.01 3.03,-4.2 3.94,-6.21 c 0.03,-0.07 0.36,-0.13 0.41,-0.21 c 0.15,-0.23 0.27,-0.61 0.42,-0.83 c 0.52,-0.8 1,-1.62 1.45,-2.28 c 0.15,-0.23 0.44,-0.35 0.62,-0.62 c 0.32,-0.49 0.5,-1.15 0.83,-1.66 c 0.28,-0.43 0.76,-0.81 1.03,-1.25 c 0.13,-0.2 0.27,-0.59 0.42,-0.82 c 0.4,-0.65 0.73,-1 1.03,-1.45 c 0.58,-0.86 0.92,-1.59 1.46,-2.29 c 0,-0.11 0.16,-0.23 0.2,0 z"
         style="fill:#b3b3b3;stroke:#373535;stroke-width:0.25;stroke-linecap:butt;stroke-linejoin:miter;stroke-miterlimit:4;stroke-opacity:1;stroke-dasharray:none"
         inkscape:connector-curvature="0" /><path
         id="path5072"
         d="m 297.11707,469.02393 l -20.52,0 c 0.97,-4 1.93,-8.14 2.9,-12.23 c 2.48,-10.48 5.09,-21.61 7.46,-31.72 c 0.22,-0.96 0.14,-2.08 0.83,-2.9 c 2.35,11.88 4.59,23.39 7.05,35.03 c 0.81,3.85 1.85,7.78 2.28,11.82 z"
         style="fill:#b3b3b3;stroke:#373535;stroke-width:0.25;stroke-linecap:butt;stroke-linejoin:miter;stroke-miterlimit:4;stroke-opacity:1;stroke-dasharray:none"
         inkscape:connector-curvature="0" /><path
         id="path5070"
         d="m 307.68737,407.66403 c 0.42,1.78 1.05,3.77 1.04,5.39 c -0.011,0.83 -0.23,1.97 -0.421,2.9 c -0.199,1.01 -0.43,1.96 -0.619,2.9 c -2.681,13.53 -5.721,26.89 -8.29,40.22 c -0.011,0.12 -0.03,0.24 -0.21,0.2 c -2.811,-14 -5.971,-29.55 -8.91,-43.53 c -0.211,-0.99 -0.631,-2.19 -0.62,-2.9 c 0,-0.63 0.42,-1.61 0.62,-2.49 c 2.18,-9.42 4.559,-18.99 6.63,-27.98 c 0.78,-3.41 1.34,-6.85 2.49,-10.16 c 2.62,11.76 5.55,23.87 8.29,35.45 z"
         style="fill:#b3b3b3;stroke:#373535;stroke-width:0.25;stroke-linecap:butt;stroke-linejoin:miter;stroke-miterlimit:4;stroke-opacity:1;stroke-dasharray:none"
         inkscape:connector-curvature="0" /><path
         id="path5068"
         d="m 321.98717,469.02393 l -20.521,0 l 0,-0.63 c 3.081,-15.5 6.201,-30.97 9.541,-46.22 c 3.69,15.58 7.25,31.3 10.98,46.85 z"
         style="fill:#b3b3b3;stroke:#373535;stroke-width:0.25;stroke-linecap:butt;stroke-linejoin:miter;stroke-miterlimit:4;stroke-opacity:1;stroke-dasharray:none"
         inkscape:connector-curvature="0" /><path
         id="path5066"
         d="m 343.54677,488.50393 c -1.92,1.12 -3.91,2.88 -5.8,3.73 c -0.07,0.03 -0.13,0.37 -0.21,0.42 c -0.24,0.15 -0.58,0.25 -0.83,0.41 c -1.019,0.67 -1.84,1.29 -2.7,1.87 c -0.64,0.43 -1.359,0.81 -1.859,1.03 c -0.071,0.03 -0.13,0.37 -0.21,0.42 c -0.221,0.14 -0.561,0.24 -0.83,0.41 c -1,0.66 -1.861,1.3 -2.691,1.87 c -0.63,0.43 -1.34,0.8 -1.87,1.03 c -0.069,0.04 -0.13,0.37 -0.21,0.42 c -0.229,0.15 -0.54,0.23 -0.819,0.41 c -0.971,0.64 -1.95,1.38 -2.7,1.87 c -0.601,0.39 -1.081,0.71 -1.661,0.83 c -1.389,0.29 -3.12,0 -4.759,0 l -14.721,0 c -0.489,-9.74 -0.069,-20.38 -0.21,-30.47 l 16.79,0 c 1.891,0 4.061,-0.39 5.601,0 c 0.719,0.18 1.589,1.14 2.479,1.86 c 0.83,0.67 1.78,1.3 2.49,1.87 c 0.95,0.75 1.83,1.68 2.7,2.07 c 0.05,0.03 0.14,0.37 0.201,0.42 c 0.399,0.33 0.699,0.47 1.04,0.62 c 0.059,0.03 0.139,0.36 0.21,0.41 c 0.819,0.63 1.199,0.91 1.859,1.45 c 0.42,0.34 0.84,0.72 1.25,1.04 c 0.9,0.72 2.061,1.69 2.9,2.07 c 0.06,0.03 0.15,0.37 0.21,0.42 c 1.491,1.24 3.13,2.19 4.35,3.52 z"
         style="fill:#b3b3b3;stroke:#373535;stroke-width:0.25;stroke-linecap:butt;stroke-linejoin:miter;stroke-miterlimit:4;stroke-opacity:1;stroke-dasharray:none"
         inkscape:connector-curvature="0" /><path
         id="path5064"
         d="m 343.54677,493.27393 c -0.43,3.37 -0.85,6.75 -1.45,9.95 c -4.42,-0.14 -9.4,0.28 -13.48,-0.21 c 1.3,-0.68 2.52,-1.47 3.741,-2.28 c 2.549,-1.7 5.009,-3.34 7.46,-4.97 c 1.219,-0.82 2.379,-1.82 3.729,-2.49 z"
         style="fill:#b3b3b3;stroke:#373535;stroke-width:0.25;stroke-linecap:butt;stroke-linejoin:miter;stroke-miterlimit:4;stroke-opacity:1;stroke-dasharray:none"
         inkscape:connector-curvature="0" /><path
         id="path5062"
         d="m 341.88657,454.30373 c 0.36,1.63 1.19,3.24 1.04,4.97 c -2.529,-4.09 -5.069,-8.28 -7.67,-12.43 c -1.269,-2.02 -2.67,-3.97 -3.939,-6.01 c -0.321,-0.52 -0.511,-1.16 -0.83,-1.66 c -0.8,-1.27 -1.821,-2.63 -2.491,-3.73 c -0.519,-0.87 -0.94,-1.67 -1.45,-2.49 c -0.319,-0.52 -0.71,-0.94 -1.029,-1.45 c -4.37,-6.92 -8.761,-14.22 -13.061,-20.94 c -0.66,-1.02 -0.71,-1.9 -1.04,-3.32 c -0.96,-4.16 -1.929,-8.14 -2.899,-12.22 c -1.91,-8.06 -3.731,-16.11 -5.811,-24.26 c 0,-0.22 0.1,-0.52 0.21,-0.21 c 7.731,11.56 16.13,24.82 24.05,36.49 c 0.561,0.83 1.021,1.59 1.45,2.28 c 0.401,0.65 0.731,0.99 1.031,1.45 c 0.149,0.22 0.269,0.59 0.419,0.83 c 0.97,1.52 2.06,3.03 2.901,4.35 c 0.309,0.49 0.729,0.83 0.829,1.04 c 0.08,0.17 -0.069,0.44 0,0.62 c 0.61,1.61 0.841,3.44 1.24,5.18 c 2.021,8.73 4.071,17.68 6.01,26.12 c 0.23,0.99 0.471,1.76 0.631,2.49 c 0.199,0.92 0.199,1.95 0.409,2.9 z"
         style="fill:#b3b3b3;stroke:#373535;stroke-width:0.25;stroke-linecap:butt;stroke-linejoin:miter;stroke-miterlimit:4;stroke-opacity:1;stroke-dasharray:none"
         inkscape:connector-curvature="0" /><path
         id="path5060"
         d="m 344.16687,468.60403 c 0.32,0 0.68,0.57 0,0.42 l -18.24,0 c -0.239,-0.04 -0.22,-0.33 -0.21,-0.63 c -3.41,-14.39 -6.97,-29.72 -10.36,-43.94 c -0.22,-0.92 -0.6,-1.93 -0.419,-2.9 c 0.409,0.8 0.859,1.7 1.25,2.28 c 0.159,0.24 0.459,0.37 0.619,0.62 c 0.16,0.26 0.06,0.57 0.211,0.83 c 0.129,0.24 0.469,0.38 0.619,0.62 c 0.32,0.53 0.49,1.13 0.83,1.66 c 0.27,0.43 0.761,0.81 1.03,1.24 c 0.34,0.52 0.5,1.13 0.83,1.66 c 1.88,2.96 3.8,5.84 5.6,8.71 c 0.68,1.08 1.41,2.3 1.87,3.31 c 0.03,0.07 0.36,0.13 0.41,0.21 c 0.15,0.23 0.24,0.55 0.41,0.83 c 0.45,0.69 0.79,1.32 1.04,1.87 c 0.031,0.07 0.37,0.12 0.42,0.2 c 0.14,0.25 0.25,0.58 0.41,0.83 c 0.69,1.13 1.3,2.02 1.87,2.9 c 0.34,0.55 0.49,1.13 0.831,1.66 c 0.599,0.97 1.259,1.95 1.859,2.9 c 1.88,3.01 3.78,5.8 5.6,8.71 c 0.68,1.1 1.43,2.35 1.86,3.32 c 0.04,0.07 0.37,0.12 0.42,0.2 c 0.17,0.3 0.25,0.57 0.41,0.83 c 0.33,0.55 0.71,1.05 0.83,1.66 z"
         style="fill:#b3b3b3;stroke:#373535;stroke-width:0.25;stroke-linecap:butt;stroke-linejoin:miter;stroke-miterlimit:4;stroke-opacity:1;stroke-dasharray:none"
         inkscape:connector-curvature="0" /><path
         id="path5058"
         d="m 330.69717,472.75393 l 15.75,0 c -0.49,3.93 -1.03,7.81 -1.66,11.61 c -0.01,0.12 -0.03,0.24 -0.2,0.2 c -0.55,-0.9 -1.491,-1.23 -2.281,-1.86 c -0.579,-0.46 -1.089,-0.99 -1.659,-1.45 c -1.19,-0.97 -2.35,-1.97 -3.53,-2.91 c -0.74,-0.59 -1.691,-1.2 -2.28,-1.65 c -0.491,-0.38 -0.83,-0.91 -1.241,-1.25 c -0.939,-0.76 -1.949,-1.33 -2.689,-2.07 c 0.07,0.08 -1.15,-0.55 -0.21,-0.62 z"
         style="fill:#b3b3b3;stroke:#373535;stroke-width:0.25;stroke-linecap:butt;stroke-linejoin:miter;stroke-miterlimit:4;stroke-opacity:1;stroke-dasharray:none"
         inkscape:connector-curvature="0" /><path
         id="path5056"
         d="m 361.16687,502.60403 c -0.02,-0.02 1.101,0.51 0.21,0.62 l -15.34,0 c 0.45,-3.76 1.13,-7.3 1.45,-11.19 c 0.8,-0.35 1.16,0.66 1.66,1.03 c 0.18,0.14 0.46,0.09 0.621,0.21 c 0.129,0.1 0.259,0.29 0.409,0.41 c 0.73,0.59 1.23,0.96 1.87,1.45 c 0.29,0.23 0.51,0.58 0.83,0.83 c 1.9,1.52 3.77,2.91 5.59,4.36 c 0.92,0.72 2.011,1.59 2.7,2.28 z"
         style="fill:#b3b3b3;stroke:#373535;stroke-width:0.25;stroke-linecap:butt;stroke-linejoin:miter;stroke-miterlimit:4;stroke-opacity:1;stroke-dasharray:none"
         inkscape:connector-curvature="0" /><path
         id="path5054"
         d="m 350.38657,472.75393 c 5.46,0.14 11.471,-0.28 16.58,0.21 c -6.17,3.91 -12.059,8.11 -18.239,12.02 c -0.12,-0.01 -0.24,-0.03 -0.21,-0.21 c 0.819,-3.81 1.14,-8.13 1.869,-12.02 z"
         style="fill:#b3b3b3;stroke:#373535;stroke-width:0.25;stroke-linecap:butt;stroke-linejoin:miter;stroke-miterlimit:4;stroke-opacity:1;stroke-dasharray:none"
         inkscape:connector-curvature="0" /><path
         id="path5052"
         d="m 367.38657,468.39403 c -0.13,0.46 0.591,0.66 -0.21,0.63 l -17.83,0 c -0.239,-0.04 -0.22,-0.33 -0.199,-0.63 c -2.83,-12.58 -6.101,-25.55 -8.71,-37.93 c -0.28,-1.31 -0.881,-2.63 -0.62,-3.94 c 4.46,7.04 9.099,14 13.679,20.94 c 1.161,1.75 2.75,3.87 3.521,5.6 c 0.029,0.06 0.369,0.13 0.42,0.2 c 0.059,0.1 -0.051,0.31 0,0.42 c 0.029,0.06 0.359,0.13 0.409,0.2 c 0.07,0.1 -0.05,0.31 0,0.42 c 0.03,0.07 0.37,0.13 0.421,0.21 c 0.13,0.21 0.26,0.59 0.409,0.83 c 1.79,2.7 3.481,5.29 5.181,7.87 c 1.16,1.75 2.17,3.58 3.529,5.18 z"
         style="fill:#b3b3b3;stroke:#373535;stroke-width:0.25;stroke-linecap:butt;stroke-linejoin:miter;stroke-miterlimit:4;stroke-opacity:1;stroke-dasharray:none"
         inkscape:connector-curvature="0" /><path
         id="path5050"
         d="m 379.40707,454.30373 c 0.12,0.17 0.63,0.46 0.42,0.83 c -9.8,-9.74 -20.12,-19.7 -29.85,-29.44 c -4.94,-4.93 -10.15,-9.94 -14.93,-14.71 c -0.991,-1 -2.3,-1.89 -3.11,-2.91 c -0.19,-0.24 -0.19,-0.7 -0.41,-1.03 c -0.23,-0.34 -0.63,-0.53 -0.83,-0.83 c -0.21,-0.32 -0.21,-0.72 -0.42,-1.04 c -0.21,-0.33 -0.61,-0.49 -0.83,-0.83 c -0.17,-0.27 -0.23,-0.73 -0.41,-1.03 c -0.07,-0.13 -0.33,-0.28 -0.42,-0.42 c -0.11,-0.19 -0.07,-0.41 -0.2,-0.62 c -0.21,-0.31 -0.64,-0.55 -0.83,-0.83 c -0.13,-0.18 -0.11,-0.46 -0.21,-0.62 c -0.08,-0.13 -0.321,-0.28 -0.41,-0.42 c -5.2,-7.79 -9.89,-15.31 -15.14,-23 c 0,-0.21 -0.16,-0.25 -0.2,-0.42 c 0.23,0.04 0.32,0.23 0.41,0.42 c 15.12,14.71 30.74,30.32 45.61,45.18 c 0.989,0.99 2.35,2.17 3.1,3.11 c 0.19,0.24 0.23,0.74 0.42,1.04 c 0.06,0.09 0.34,0.11 0.41,0.21 c 0.13,0.16 0.11,0.47 0.21,0.62 c 1.42,2.15 3.05,4.55 4.349,6.42 c 0.25,0.36 0.481,0.63 0.631,0.83 c 0.21,0.32 0.19,0.71 0.41,1.04 c 0.2,0.3 0.62,0.52 0.83,0.83 c 0.2,0.29 0.2,0.71 0.41,1.04 c 0.2,0.29 0.639,0.52 0.83,0.83 c 0.19,0.29 0.25,0.75 0.42,1.03 c 0.27,0.47 0.85,1 1.03,1.25 c 0.13,0.17 0.1,0.46 0.21,0.62 c 1.61,2.31 3.63,5.04 4.979,7.25 c 0.161,0.28 0.221,0.75 0.411,1.04 c 0.06,0.09 0.339,0.11 0.42,0.21 c 0.12,0.16 0.1,0.47 0.2,0.62 c 0.31,0.45 0.85,0.99 1.04,1.24 c 0.13,0.17 0.099,0.47 0.21,0.62 c 0.3,0.45 0.85,1 1.03,1.25 c 0.13,0.16 0.109,0.47 0.21,0.62 z"
         style="fill:#b3b3b3;stroke:#373535;stroke-width:0.25;stroke-linecap:butt;stroke-linejoin:miter;stroke-miterlimit:4;stroke-opacity:1;stroke-dasharray:none"
         inkscape:connector-curvature="0" /><path
         id="path5048"
         d="m 386.03697,488.92383 c 0.71,0.7 1.72,1.24 2.08,2.28 c -2.91,2.93 -5.85,6.05 -8.92,9.12 c -1.04,1.04 -2.35,2.64 -3.31,2.9 c -0.96,0.26 -2.57,0 -3.94,0 c -1.22,0 -3.05,0.25 -3.94,0 c -0.34,-0.1 -0.35,-0.41 -0.62,-0.62 c -0.17,-0.14 -0.47,-0.09 -0.62,-0.21 c -0.18,-0.14 -0.24,-0.48 -0.42,-0.62 c -0.16,-0.13 -0.47,-0.09 -0.62,-0.21 c -0.18,-0.14 -0.24,-0.48 -0.42,-0.62 c -0.16,-0.13 -0.47,-0.09 -0.62,-0.21 c -0.17,-0.13 -0.24,-0.48 -0.41,-0.62 c -0.4,-0.33 -0.86,-0.52 -1.24,-0.83 c -1.43,-1.14 -2.89,-2.35 -4.36,-3.52 c -3.08,-2.46 -6.16,-4.85 -8.5,-7.05 c 4.79,-3.24 10.01,-6.57 14.51,-9.74 c 0.47,-0.33 1.45,-0.84 1.66,-1.04 c 0.18,-0.17 0.45,-0.25 0.62,-0.41 c 0.5,-0.48 1.11,-0.88 1.66,-1.25 c 0.92,-0.61 1.95,-1.03 2.7,-1.86 c 0.88,0.43 1.61,1.19 2.28,1.86 c 4.15,4.16 8.44,8.65 12.43,12.65 z"
         style="fill:#b3b3b3;stroke:#373535;stroke-width:0.25;stroke-linecap:butt;stroke-linejoin:miter;stroke-miterlimit:4;stroke-opacity:1;stroke-dasharray:none"
         inkscape:connector-curvature="0" /><path
         id="path5046"
         d="m 387.28697,467.77393 c 0.28,0.31 1.71,1.08 0.83,1.25 l -15.76,0 c -0.83,-0.88 -1.64,-2.16 -2.07,-3.11 c -0.03,-0.07 -0.36,-0.13 -0.42,-0.21 c -0.14,-0.23 -0.23,-0.55 -0.41,-0.83 c -0.44,-0.69 -0.79,-1.32 -1.04,-1.87 c -0.03,-0.06 -0.36,-0.12 -0.41,-0.2 c -0.15,-0.24 -0.23,-0.55 -0.42,-0.83 c -0.98,-1.49 -1.96,-2.93 -2.9,-4.35 c -1.73,-2.63 -3.67,-5.46 -5.18,-7.88 c -0.54,-0.86 -0.99,-1.35 -1.45,-2.07 c -0.7,-1.1 -1.27,-2.03 -1.87,-2.91 c -0.42,-0.63 -0.79,-1.33 -1.03,-1.86 c -0.03,-0.07 -0.37,-0.13 -0.42,-0.21 c -0.15,-0.24 -0.25,-0.58 -0.41,-0.83 c -2.25,-3.4 -4.5,-6.96 -6.63,-10.16 c -0.3,-0.43 -0.77,-0.82 -1.04,-1.24 c -0.34,-0.53 -0.5,-1.15 -0.83,-1.66 c -0.49,-0.75 -1.03,-1.4 -1.45,-2.07 c -0.54,-0.86 -0.98,-1.36 -1.45,-2.07 c -0.26,-0.4 -0.71,-0.92 -0.62,-1.45 c 7.49,7.62 15.47,15.26 23.21,23 c 7.19,7.19 14.94,14.35 21.77,21.56 z"
         style="fill:#b3b3b3;stroke:#373535;stroke-width:0.25;stroke-linecap:butt;stroke-linejoin:miter;stroke-miterlimit:4;stroke-opacity:1;stroke-dasharray:none"
         inkscape:connector-curvature="0" /><path
         id="path5044"
         d="m 375.88657,472.75393 l 15.96,0 c -0.59,4.86 -1.489,9.42 -2.279,14.09 c -0.011,0.13 -0.031,0.25 -0.21,0.21 c -3.79,-4.16 -8.741,-8.55 -12.441,-12.64 c -0.2,-0.23 -0.58,-0.55 -0.83,-0.83 c 0.03,0.02 -1,-0.72 -0.2,-0.83 z"
         style="fill:#b3b3b3;stroke:#373535;stroke-width:0.25;stroke-linecap:butt;stroke-linejoin:miter;stroke-miterlimit:4;stroke-opacity:1;stroke-dasharray:none"
         inkscape:connector-curvature="0" /><path
         id="path5042"
         d="m 403.86707,468.60403 c 0.05,0.26 0.32,0.43 -0.21,0.42 l -4.76,0 c -1.53,0 -3.51,0.41 -4.77,0 c -0.84,-0.28 -1.8,-2.12 -2.7,-3.53 c -2.26,-3.56 -4.16,-6.25 -6.22,-9.33 c -0.53,-0.79 -1.25,-1.74 -1.651,-2.28 c -0.129,-0.16 -0.109,-0.47 -0.21,-0.62 c -0.309,-0.45 -0.849,-0.99 -1.04,-1.24 c -0.119,-0.17 -0.099,-0.47 -0.199,-0.62 c -2.35,-3.47 -4.73,-7.14 -6.85,-10.37 c -0.37,-0.57 -1.12,-1.1 -1.03,-1.86 c 9.95,9.73 19.67,19.71 29.64,29.43 z"
         style="fill:#b3b3b3;stroke:#373535;stroke-width:0.25;stroke-linecap:butt;stroke-linejoin:miter;stroke-miterlimit:4;stroke-opacity:1;stroke-dasharray:none"
         inkscape:connector-curvature="0" /><path
         id="path5040"
         d="m 395.78697,472.75393 l 10.15,0 c -0.64,1.32 -1.91,2.12 -2.9,3.11 c -3.13,3.13 -5.9,6.42 -9.12,9.33 c -0.01,0.12 -0.03,0.24 -0.21,0.2 c 0.58,-4.32 1.35,-8.47 2.08,-12.64 z"
         style="fill:#b3b3b3;stroke:#373535;stroke-width:0.25;stroke-linecap:butt;stroke-linejoin:miter;stroke-miterlimit:4;stroke-opacity:1;stroke-dasharray:none"
         inkscape:connector-curvature="0" /><path
         id="path3150"
         d="m 265.19717,495.13383 c -0.1,-0.06 -0.31,0.05 -0.42,0 c -0.07,-0.03 -0.13,-0.36 -0.21,-0.41 c -0.09,-0.06 -0.31,0.05 -0.41,0 c -0.07,-0.03 -0.13,-0.36 -0.21,-0.41 c -0.24,-0.16 -0.58,-0.26 -0.83,-0.42 c -0.89,-0.58 -1.78,-1.26 -2.69,-1.86 c -1.85,-1.24 -3.88,-2.27 -5.39,-3.74 c 1.36,-0.78 2.67,-2.33 3.94,-2.9 c 0.06,-0.03 0.14,-0.36 0.2,-0.41 c 0.79,-0.6 1.23,-0.93 1.87,-1.45 c 1.68,-1.37 3.45,-2.73 4.97,-3.94 c 2.09,-1.67 4.18,-3.34 6.22,-4.98 c 0.9,-0.72 1.69,-1.64 2.7,-1.86 c 1.52,-0.34 3.64,0 5.39,0 l 16.79,0 l 0,30.47 l -14.93,0 c -1.71,0 -3.57,0.33 -4.97,0 c -0.28,-0.07 -0.42,-0.28 -0.62,-0.42 c -1.75,-1.14 -3.54,-2.29 -5.39,-3.52 c -1.84,-1.21 -3.97,-2.9 -5.81,-3.73 c -0.07,-0.03 -0.13,-0.36 -0.2,-0.42 z"
         style="fill:#b3b3b3;stroke:#373535;stroke-width:0.25;stroke-linecap:butt;stroke-linejoin:miter;stroke-miterlimit:4;stroke-opacity:1;stroke-dasharray:none"
         sodipodi:nodetypes="csssssccssscccccccsccsc"
         inkscape:connector-curvature="0" /></g></g></svg>